<?xml version="1.0" standalone="no"?>
<!DOCTYPE svg PUBLIC "-//W3C//DTD SVG 1.1//EN" "http://www.w3.org/Graphics/SVG/1.1/DTD/svg11.dtd" >
<svg xmlns="http://www.w3.org/2000/svg" xmlns:xlink="http://www.w3.org/1999/xlink" version="1.1">
<metadata>
Created by FontForge 20170731 at Mon Dec  6 07:43:48 1999
 By Aleksey,,,
(c) 1999 Blu Creative Media/Chuck Davis  blu@onebox.com
</metadata>
<defs>
<font id="BLUEsotericplain" horiz-adv-x="317" >
  <font-face 
    font-family="BLU Esoteric"
    font-weight="500"
    font-style="italic"
    font-stretch="normal"
    units-per-em="2048"
    panose-1="2 2 5 0 0 0 0 0 0 0"
    ascent="1638"
    descent="-410"
    x-height="803"
    cap-height="967"
    bbox="-195 -246.562 1888 1040"
    underline-thickness="50"
    underline-position="-175"
    slope="-11"
    unicode-range="U+0008-007A"
  />
<missing-glyph horiz-adv-x="1024" 
d="M128 0v1004h768v-1004h-768zM256 128h512v748h-512v-748z" />
    <glyph glyph-name=".notdef" horiz-adv-x="1024" 
d="M128 0v1004h768v-1004h-768zM256 128h512v748h-512v-748z" />
    <glyph glyph-name=".null" horiz-adv-x="0" 
 />
    <glyph glyph-name="glyph2" 
 />
    <glyph glyph-name="BS" 
 />
    <glyph glyph-name="HT" unicode="&#x9;" 
 />
    <glyph glyph-name="nonmarkingreturn" unicode="&#xd;" 
 />
    <glyph glyph-name="GS" 
 />
    <glyph glyph-name="space" unicode=" " 
 />
    <glyph glyph-name="exclam" unicode="!" horiz-adv-x="412" 
d="M287 141l119 -82l-119 -79l-107 79zM434 840v-33l-129 -623h-37l-24 178q-9 65 -64 281q-43 168 -43 223q0 133 154 133q96 0 129 -57q18 -22 18 -74q0 -22 -4 -28z" />
    <glyph glyph-name="ampersand" unicode="&#x26;" horiz-adv-x="1352" 
d="M297 596q-59 88 -59 160q0 103 106 162q103 57 287 57q119 0 194 -12l-8 -250q-14 37 -47 102q-23 46 -78 86q-67 49 -137 49q-92 0 -92 -110q0 -131 92 -222l348 -344q38 38 58 88q8 20 8 33q10 13 10 49q0 17 -39 48q-43 24 -176 36h526q-150 -14 -190 -77
q-38 -72 -131 -220l88 -90q22 -28 112 -84q101 -51 269 -59h-541l-98 104q-172 -102 -365 -120q-21 -2 -80 -2q-179 0 -285 68.5t-106 172.5q0 177 209 305q103 63 125 70zM397 481q-200 -67 -200 -237q0 -72 51 -125q63 -66 178 -66q143 0 319 97z" />
    <glyph glyph-name="quotesingle" unicode="'" horiz-adv-x="163" 
d="M57 1034q18 0 54.5 3t54.5 3q110 0 110 -41q0 -65 -284 -180q112 88 112 146q0 41 -47 69z" />
    <glyph glyph-name="comma" unicode="," horiz-adv-x="272" 
d="M82 86q119 -8 143 -35q13 -8 13 -18q0 -76 -347 -135q199 77 199 159z" />
    <glyph glyph-name="period" unicode="." horiz-adv-x="276" 
d="M172 139l115 -82l-115 -77l-106 77z" />
    <glyph glyph-name="question" unicode="?" horiz-adv-x="793" 
d="M334 141l115 -82l-115 -79l-109 79zM377 174h-86q-4 29 -8 47v43q0 115 36 187q56 112 183 233q39 53 39 121q0 141 -131 141q-158 0 -228 -135q-45 -87 -45 -209v356q103 46 318 46q158 0 227 -19q168 -46 168 -104q0 -41 -86 -107q-33 -24 -191 -137q-74 -53 -161 -156
q-72 -85 -72 -180q0 -47 37 -127z" />
    <glyph glyph-name="A" unicode="A" horiz-adv-x="1055" 
d="M496 594l-58 260l-22 68h-78l-94 -328h252zM233 549q-14 -31 -47 -162q-22 -84 -43 -190q-10 -50 -28 -123q0 -51 143 -74h-453q115 18 144 43q34 19 41 39q16 49 67 203l62 186q82 249 129 455q0 12 -39 22q-33 15 -158 19h918q-242 -9 -242 -58q79 -365 219 -696
q16 -33 66 -137q9 -18 35 -33q24 -25 118 -43h-710q117 24 143 39q37 10 37 22v2q-10 79 -57 248q-15 55 -37 125l-35 113h-273z" />
    <glyph glyph-name="B" unicode="B" horiz-adv-x="1069" 
d="M469 924q-6 2 -82 2v-258q18 0 51 8q19 3 58 14q88 37 88 113q0 32 -29 71q-33 44 -86 50zM387 66q43 -23 94 -23q38 0 60 10q270 122 270 277q0 151 -213 248q-83 38 -158 38h-49zM94 61l10 209q5 105 5 322q0 110 -13 317q-3 41 -133 58h754q168 -27 168 -99
q0 -39 -43 -73q-88 -84 -289 -117h59q7 0 38.5 -1t56.5 -1l81 -8q144 -14 254 -95q105 -79 105 -165q0 -146 -273 -310q-118 -71 -292 -86l-142 -12h-491q143 23 145 61z" />
    <glyph glyph-name="C" unicode="C" horiz-adv-x="1112" 
d="M1022 961l-4 -363q-144 359 -287 363t-211 -150q-43 -97 -43 -213q0 -284 193 -438q93 -74 229 -74q29 12 80 29q55 29 111 104q6 10 24 37q30 44 43 78q12 12 12 33v8l21 -6l-4 -19l-6 -33q-4 -14 -15 -38v4q-6 -7 -18 -50q-105 -167 -326 -233q-67 -20 -153 -20
q-113 0 -219 34q-349 168 -349 469q0 295 291 443q135 69 322 69q190 0 309 -34z" />
    <glyph glyph-name="D" unicode="D" horiz-adv-x="928" 
d="M610 969q189 0 286 -86.5t97 -241.5q0 -152 -98 -307q-89 -142 -225 -234q-148 -100 -303 -100h-439q169 31 172 74q11 138 11 311q0 262 -2 305l-9 195q-1 15 -32 45q-31 24 -136 37zM645 627v16q0 81 -43 154q-64 108 -192 121v-848q121 68 186 268q45 139 49 289z" />
    <glyph glyph-name="E" unicode="E" horiz-adv-x="825" 
d="M-37 967h844v-314q-109 281 -373 281v-266h283q-262 -56 -291 -131v-490q134 19 258 225q79 131 123 269v-541h-858q112 18 145 39q35 18 35 31v827q0 49 -166 70z" />
    <glyph glyph-name="F" unicode="F" horiz-adv-x="754" 
d="M4 967h803v-295q-82 234 -281 252l-88 8v-264h254q-233 -56 -254 -127l-4 -478q0 -26 154 -63h-602q100 23 137 39q29 18 35 31v831q0 39 -154 66z" />
    <glyph glyph-name="G" unicode="G" horiz-adv-x="918" 
d="M584 958q-143 0 -203 -157q-37 -97 -37 -219q0 -149 57 -291q82 -205 248 -234q47 0 62 4h10l-72 21v436q-10 60 -196 80h530v-461q-127 -94 -338 -145q-50 -12 -104 -12q-103 0 -226 43q-329 165 -329 466q0 229 180 374q167 134 401 134q8 0 27 -1t31 -1h39
q42 -3 124 -15q33 -8 72 -22l-4 -358q-135 358 -272 358z" />
    <glyph glyph-name="H" unicode="H" horiz-adv-x="1194" 
d="M444 674h344q5 22 5 94v117q-15 53 -119 82h549q-156 -27 -158 -76q-10 -322 -10 -424v-64q2 -101 2 -79v-119l4 -66q2 -30 4 -49v-33q0 -8 25 -22q18 -17 100 -35h-545q143 25 143 59v545q-3 1 -32 2q-153 6 -158 6q-78 0 -154 -8v-235q0 13 5 -133l6 -175
q2 -47 127 -61h-559q34 4 86 23q57 21 63 38q2 27 8 158q6 141 6 262q0 230 -14 406q-4 16 -25 43q-28 24 -110 37h584q-166 -23 -166 -72q-2 -8 -2 -27v-43q-9 -139 -9 -151z" />
    <glyph glyph-name="I" unicode="I" horiz-adv-x="598" 
d="M-14 967h653q-176 -17 -176 -56v-845q0 -29 135 -66h-608q153 23 153 66v843q0 41 -157 58z" />
    <glyph glyph-name="J" unicode="J" horiz-adv-x="1071" 
d="M338 969h813q-129 -8 -176 -29q-39 -22 -39 -33v-819q-154 -108 -410 -108q-245 0 -489 81v465q106 -313 268 -407q171 -99 250 -99h61q-4 0 -6 3l-12 4l-14 4q-15 6 -21 20v856q0 43 -225 62z" />
    <glyph glyph-name="K" unicode="K" horiz-adv-x="1352" 
d="M29 967h635q-86 -13 -129 -29q-29 -14 -37 -23v-305q161 113 381 320q0 20 -119 37h538q-251 -15 -290 -56q-24 -15 -183 -137q-140 -108 -243 -201h229q158 -335 455 -524q4 -6 32 -22q39 -17 117 -27h-590q-36 66 -184 295l-149 231v-452q6 -11 32 -31q25 -25 111 -43
h-612q88 16 131 37q36 24 41 29v835q0 43 -166 66z" />
    <glyph glyph-name="L" unicode="L" horiz-adv-x="813" 
d="M4 967h649q-176 -19 -176 -68v-850q229 146 348 668v-717h-839q172 14 172 76v835q0 9 -29 27q-33 16 -125 29z" />
    <glyph glyph-name="M" unicode="M" horiz-adv-x="1548" 
d="M-14 967h712q-87 -11 -110 -19q-29 -10 -33 -16l209 -789q16 55 72 238q17 51 61 199l35 122q16 54 61 209q-4 7 -32 25q-35 14 -119 31h778q-90 -13 -125 -25q-33 -16 -33 -22v-857q0 -30 119 -63h-645q154 23 154 59v832q-27 -70 -78 -252l-105 -377q-18 -68 -71 -262
h-377l-248 893l2 -18l2 -44v-110v-232q0 -121 14 -430q2 -34 140 -59h-420q104 18 155 61q15 122 19 287q2 92 2 385v166q0 45 -139 68z" />
    <glyph glyph-name="N" unicode="N" horiz-adv-x="1212" 
d="M0 967h668l340 -916q18 162 18 436v261q0 57 -12 167q-21 29 -164 52h450q-167 -17 -167 -49q-2 -10 -7 -179l-8 -297v-71q0 -170 15 -371h-549l-322 915q-10 -208 -10 -401q0 -278 10 -451q33 -43 150 -63h-455q172 29 172 59q33 193 33 703v147q-29 43 -162 58z" />
    <glyph glyph-name="O" unicode="O" horiz-adv-x="1143" 
d="M641 -41q-332 0 -504 258q-80 120 -80 260q0 127 68 242q79 134 221 206q133 68 295 68q334 0 506 -258q80 -120 80 -258q0 -272 -256 -428q-148 -90 -330 -90zM401 473q0 -260 123 -401q54 -62 115 -62q132 0 203 232q32 105 32 231q0 125 -32 234q-68 231 -203 231
q-62 0 -115 -61q-123 -141 -123 -404zM631 367l-43 196l43 70l47 -70z" />
    <glyph glyph-name="P" unicode="P" horiz-adv-x="1022" 
d="M-10 969h755q100 0 205 -43q102 -42 125 -101q19 -49 19 -86q0 -119 -143 -200q-106 -60 -249 -84q-152 -25 -192 -27q99 38 145 74q152 117 152 221q0 124 -172 184q-55 19 -154 19q0 -8 -8 -176q-4 -84 -4 -285q0 -157 12 -395q2 -40 150 -70h-645q96 14 129 37
q27 19 28 33q11 211 11 385q0 25 -1 72q-1 60 -1 83v123q0 92 -9 170q-14 35 -153 66z" />
    <glyph glyph-name="Q" unicode="Q" horiz-adv-x="1313" 
d="M645 10q131 0 195 207q43 139 43 262q0 128 -43 264q-66 209 -195 209q-130 0 -196 -209q-43 -135 -43 -264q0 -274 118 -405q58 -64 121 -64zM57 494q0 291 287 440q135 70 291 70q167 0 311 -82q266 -152 266 -428q0 -251 -229 -404q-107 -72 -238 -92l197 12
q14 0 37 2h68q351 0 559 -69q94 -31 94 -66q0 -44 -137 -84q-120 -35 -205 -39q-62 -3 -107 10q72 31 72 82q0 16 -18 45q-38 61 -168 76q-52 6 -230 6h-125q-8 0 -55 -2t-35 -2h-28l-152 -12l-229 -31q-211 0 -211 92q0 15 8 41q20 47 88 47q113 0 141 -63l-18 4
q-9 2 -33 2q-57 0 -57 -31q0 -36 108 -51l72 -2l244 23q-323 8 -488 256q-80 120 -80 250zM635 387l-43 193l43 67l47 -67z" />
    <glyph glyph-name="R" unicode="R" horiz-adv-x="1143" 
d="M-14 969h653q64 0 192 -19q234 -35 234 -119q0 -106 -444 -239q32 -44 118 -146q253 -299 484 -397q20 -26 186 -49h-596l-330 614q230 78 230 174q0 64 -71.5 101t-182.5 37v-838q0 -51 139 -88h-606q147 31 147 72v839q0 35 -153 58z" />
    <glyph glyph-name="S" unicode="S" horiz-adv-x="894" 
d="M66 786q0 23 10 41q0 126 350 154q75 6 80 6h67l101 -8l137 -27l2 -295q-100 258 -274 281q-13 0 -41 4q-15 4 -39 4q-49 0 -78 -31q0 -6 3 -14t3 -12q4 -6 4 -8q48 -37 187 -148q58 -47 249 -215q127 -112 138 -153q10 -37 10 -58q0 -219 -391 -301q-36 -4 -103 -16
q-57 -10 -123 -10q-176 0 -301 61v502q50 -138 152 -279q147 -203 307 -203q119 0 119 109q0 17 -80 96q-93 92 -186 176q-91 78 -182 157q-121 116 -121 187z" />
    <glyph glyph-name="T" unicode="T" horiz-adv-x="950" 
d="M4 969h995v-389q-67 342 -331 342v-248q0 -414 10 -586q3 -53 168 -88h-688q160 36 166 86q18 143 14 467l-4 369q-135 0 -209 -76q-107 -109 -125 -268z" />
    <glyph glyph-name="U" unicode="U" horiz-adv-x="1141" 
d="M-72 969h756q-193 -23 -197 -80q-10 -158 -10 -311v-62q4 -96 4 -82v-137l6 -197q54 -63 162 -63q119 0 258 98v0q1 18 4 109l11 413q5 192 -15 250q0 47 -125 62h441q-172 -27 -191 -97q6 -121 4 -172q-8 -245 -8 -286q0 -221 14 -305q-221 -144 -501 -144
q-246 0 -437 146l11 460q0 187 -11 322q-10 20 -38 41q-41 24 -138 35z" />
    <glyph glyph-name="V" unicode="V" horiz-adv-x="1042" 
d="M764 969h354q-125 -13 -147 -66q-30 -74 -103 -299q-43 -132 -100 -336q-42 -150 -57 -268h-353q-34 179 -90 367q-32 107 -102 346q-25 85 -66 194q-4 6 -20 31q-23 18 -94 31h612q-125 -27 -125 -70q2 -11 33 -139q6 -28 24 -111q15 -66 39 -162q30 -118 76 -299
l225 723q0 29 -106 58z" />
    <glyph glyph-name="W" unicode="W" horiz-adv-x="1763" 
d="M-51 967h614q-125 -19 -125 -70q22 -72 78 -281l100 -397l209 658q0 53 -100 90h580q-134 -23 -134 -76q91 -339 123 -434q21 -57 86 -238l219 699q0 28 -126 49h415q-173 -17 -192 -66q-36 -96 -144 -414q-110 -326 -139 -487h-319l-82 330q-19 84 -80 319l-39 139
q-17 -45 -68 -202q-46 -142 -94 -314q-47 -168 -61 -272h-346q-36 175 -91 369q-25 86 -104 340q-22 71 -63 192q0 8 -27 33q-29 20 -90 33z" />
    <glyph glyph-name="X" unicode="X" horiz-adv-x="1495" 
d="M956 967h578q-35 -3 -133 -15q-112 -14 -121 -26q-220 -133 -383 -363q229 -327 444 -487q29 -22 54 -29q35 -19 161 -47h-911q182 23 182 70q0 8 -2 14l-4 2q-1 2 -4 4q-24 47 -201 311q-126 -142 -186 -215q-12 -15 -106 -133l-5 -4q0 -35 101 -49h-434q75 10 133 29
l71 32q68 52 164 148q119 119 219 258q-106 156 -348 459q-3 6 -39 18q-27 9 -153 23h807q-170 -23 -170 -52q79 -124 118 -182q42 -61 58 -92q36 34 168 166l119 119q-7 6 -48 20q-49 12 -129 21z" />
    <glyph glyph-name="Y" unicode="Y" horiz-adv-x="1251" 
d="M-86 969h788q-167 -17 -167 -45l219 -383q2 7 143 198q20 26 74 101l55 78q0 28 -115 51h430q-104 -13 -133 -25q-43 -18 -51 -24q-235 -234 -311 -453l4 -414q0 -26 162 -53h-703q86 23 115 45q25 14 31 27v393l-336 442q0 39 -205 62z" />
    <glyph glyph-name="Z" unicode="Z" horiz-adv-x="979" 
d="M86 967h926l-553 -904q191 9 334 140q101 93 157 231q44 110 58 180q-29 -129 -37 -319q-10 -224 -10 -295h-975l592 930q-175 -6 -312 -113q-113 -89 -162 -201q-43 -99 -53 -147q17 105 25 256q10 184 10 242z" />
    <glyph glyph-name="grave" unicode="`" horiz-adv-x="0" 
 />
    <glyph glyph-name="a" unicode="a" horiz-adv-x="1059" 
d="M486 496l-72 272h-71l-78 -272h221zM255 459q-11 -20 -43 -135q-7 -24 -13 -60q-10 -37 -28 -100q0 -1 -15 -72q-4 -19 -6 -31v0q0 -43 125 -61h-401q104 16 129 35q32 16 37 33q15 53 53 157l61 168q53 147 115 379q0 31 -176 33h813q-211 -6 -211 -47q37 -181 96 -340
q85 -230 154 -355q9 -16 33 -28q22 -19 104 -35h-631q105 20 129 33q33 12 33 20q-16 76 -55 207l-60 199h-243z" />
    <glyph glyph-name="b" unicode="b" horiz-adv-x="969" 
d="M438 770q-8 2 -76 2v-215q23 0 49.5 5t47.5 13q80 33 80 95q0 86 -101 100zM362 55q35 -20 78 -20q35 0 58 10q241 103 241 229q0 127 -190 207q-79 33 -139 33h-43zM100 51q0 6 4 66l7 110v-2v269q0 145 -7 264q-2 35 -122 47h671q150 -21 150 -82q0 -33 -35 -61
q-87 -69 -258 -97h53q53 0 78 -2q12 0 76 -6q101 -9 199 -63q120 -66 120 -154q0 -119 -243 -258q-109 -62 -258 -72q-126 -8 -129 -10h-435q129 18 129 51z" />
    <glyph glyph-name="c" unicode="c" horiz-adv-x="897" 
d="M821 803l-4 -303q-40 98 -92 188q-66 113 -152 115h-8q-115 0 -168 -123q-35 -81 -35 -180q0 -239 162 -369q76 -61 193 -61q22 10 67 24q41 24 72 62q27 33 41 55l39 65q0 5 4 11v10q2 4 2 8v6l19 -4l-5 -16l-2 -27q-4 -10 -14 -33q0 -8 -7 -19t-7 -19
q-94 -145 -277 -197q-56 -16 -129 -16q-96 0 -182 28q-295 139 -295 395q0 247 244 371q118 60 272 60q158 0 262 -31z" />
    <glyph glyph-name="d" unicode="d" horiz-adv-x="813" 
d="M526 807q344 0 344 -272q0 -123 -73 -240q-75 -120 -215 -209q-136 -86 -273 -86h-395q151 25 154 61q12 136 12 261q0 172 -4 253l-8 162q-1 15 -28.5 36.5t-121.5 31.5zM559 522q2 77 -39 146q-54 92 -172 96v-707q203 118 211 465z" />
    <glyph glyph-name="e" unicode="e" horiz-adv-x="756" 
d="M-18 805h753v-260q-100 233 -334 233v-221h252q-241 -47 -256 -111l-2 -407q120 12 230 184q63 99 110 228v-451h-764q158 27 158 57v691q0 40 -147 57z" />
    <glyph glyph-name="f" unicode="f" horiz-adv-x="754" 
d="M4 805h803v-246q-81 197 -281 211l-88 6v-219h254q-225 -45 -254 -106l-4 -398q0 -22 154 -53h-602q105 19 137 33q28 12 35 24v695q0 30 -154 53z" />
    <glyph glyph-name="g" unicode="g" horiz-adv-x="842" 
d="M502 793q-125 0 -178 -129q-33 -81 -33 -185q0 -125 53 -243q76 -168 219 -193h39q10 2 14 4h11l-64 16v363q-33 51 -180 68h473v-383q-112 -80 -297 -121q-46 -10 -96 -10q-94 0 -197 36q-295 136 -295 387q0 194 166 314q149 108 350 108q23 0 43 -2h43q54 -6 172 -30
v-297q-7 19 -47 98q-99 199 -196 199z" />
    <glyph glyph-name="h" unicode="h" horiz-adv-x="1069" 
d="M383 561h305q4 19 4 80q0 76 -4 104q-4 9 -18 27q-21 16 -82 33h487q-137 -19 -139 -64q-8 -165 -8 -352v-219l8 -123q4 -22 111 -47h-488q129 20 129 49v455q-8 3 -63 4l-105 2q-71 0 -137 -6v-197q0 -137 8 -178v-78q0 -39 115 -51h-498q121 14 135 51l4 19v112l7 219
q4 136 -11 338q-4 49 -125 66h521q-148 -19 -148 -60v-20q0 -27 -4 -82t-4 -82z" />
    <glyph glyph-name="i" unicode="i" horiz-adv-x="562" 
d="M17 805h582q-158 -12 -158 -45v-705q0 -24 121 -55h-541q135 18 135 55v703q0 35 -139 47z" />
    <glyph glyph-name="j" unicode="j" horiz-adv-x="897" 
d="M283 807h653q-172 -10 -172 -51v-676q-123 -90 -326 -90q-209 0 -395 67v385q138 -419 416 -419h51q-9 5 -27 10q-14 4 -16 16v707q0 37 -184 51z" />
    <glyph glyph-name="k" unicode="k" horiz-adv-x="1194" 
d="M14 805h564q-81 -9 -115 -23q-27 -12 -33 -20v-254q112 69 195 141l145 125q0 19 -106 31h479q-215 -8 -258 -45q-25 -18 -88 -62l-76 -53q-95 -66 -215 -168h205q131 -266 401 -436q14 -27 131 -41h-522q-47 80 -162 246l-133 192v-377q4 -10 29 -26q22 -19 98 -35h-545
q78 14 117 31q29 20 33 24v697q0 34 -144 53z" />
    <glyph glyph-name="l" unicode="l" horiz-adv-x="741" 
d="M25 805h577q-162 -17 -162 -55v-709q106 59 199 231q59 108 115 326v-598h-746q150 12 150 63v697q0 8 -25 22q-29 13 -108 23z" />
    <glyph glyph-name="m" unicode="m" horiz-adv-x="1376" 
d="M4 805h631q-78 -8 -96 -14q-27 -9 -29 -15l186 -657q18 47 64 198l82 269q13 27 26 73l17 62q8 18 12 39q-14 26 -133 45h692q-141 -14 -141 -39v-713q0 -26 108 -53h-573q135 18 135 49v692q-36 -76 -88 -258l-76 -264q-61 -212 -61 -219h-336l-219 715v-307
q0 -119 18 -359q2 -29 121 -49h-373q105 18 138 51q16 154 16 559v140q0 36 -121 55z" />
    <glyph glyph-name="n" unicode="n" horiz-adv-x="1108" 
d="M-18 805h596l307 -762q14 143 14 363v112q0 32 -1 69q-1 31 -1 36q0 27 2 45q4 37 4 41q0 54 -49 73q-35 13 -113 23h406q-154 -12 -154 -41q0 -41 -4 -148q-6 -160 -6 -247q0 -226 10 -369h-491l-291 762q-6 -164 -6 -334q0 -240 10 -375q13 -13 33 -24q30 -16 100 -29
h-405q153 25 153 49q29 174 29 586v123q-25 37 -143 47z" />
    <glyph glyph-name="o" unicode="o" horiz-adv-x="1064" 
d="M560 -20q-302 0 -451 215q-67 97 -67 217q0 119 67 215q150 215 451 215q296 0 449 -215q71 -100 71 -215q0 -101 -63 -203q-142 -229 -457 -229zM349 408q0 -226 105 -334q49 -51 104 -51q122 0 182 192q29 92 29 193q0 102 -29 194q-61 193 -182 193q-120 0 -184 -193
q-25 -75 -25 -194zM550 319l-39 164l39 58l43 -58z" />
    <glyph glyph-name="p" unicode="p" horiz-adv-x="896" 
d="M-42 807h674q80 0 180 -37q125 -46 125 -154q0 -86 -100 -151q-94 -61 -248 -86q-142 -23 -168 -23q90 34 129 62q133 97 133 184q0 100 -153 154q-46 16 -138 16v-55l-4 -92q-2 -46 -2 -238q0 -154 6 -330q5 -34 138 -57h-574q82 12 115 31q24 18 24 26q7 203 7 322
q0 21 -1 98t-1 133v129l-5 15q-10 12 -32 22q-21 15 -105 31z" />
    <glyph glyph-name="q" unicode="q" horiz-adv-x="1192" 
d="M528 8q116 0 176 170q39 110 39 221q0 112 -39 222q-61 172 -176 172q-112 0 -172 -172q-39 -112 -39 -222q0 -226 107 -338q50 -53 104 -53zM8 412q0 241 254 364q124 60 258 60q299 0 449 -211q67 -94 67 -213q0 -213 -203 -336q-99 -60 -213 -78l176 10q12 0 33 2h62
q314 0 493 -57q82 -26 82 -55q0 -37 -121 -70q-109 -30 -180 -33q-49 -2 -96 8q61 25 61 68q0 12 -10 39q-36 48 -156 61q-55 6 -202 6h-113q-4 0 -19 -1t-26 -1h-33q-5 -1 -24 -2l-133 -10l-205 -24q-191 0 -191 75q0 15 13 35q14 39 77 39q101 0 123 -53l-14 4
q-14 2 -29 2q-51 0 -51 -27q0 -28 94 -41l64 -2l215 19q-289 4 -434 213q-68 98 -68 209zM520 322l-39 161l39 56l41 -56z" />
    <glyph glyph-name="r" unicode="r" horiz-adv-x="1073" 
d="M3 807h582q114 0 229 -25q152 -33 152 -90q0 -88 -395 -198q38 -51 100 -121q219 -246 430 -332q6 -6 38.5 -18t129.5 -23h-530l-293 512q207 63 207 145q0 53 -64 84t-162 31v-698q0 -45 123 -74h-538q133 27 133 59v701q0 33 -142 47z" />
    <glyph glyph-name="s" unicode="s" horiz-adv-x="796" 
d="M122 520q-82 66 -82 131v23l9 12q0 110 311 129q28 1 72 4h61l88 -6l123 -22v-246q-86 215 -244 233q-10 0 -35.5 3t-36.5 3q-43 0 -67 -24q0 -19 10 -25v-4q88 -62 168 -123q49 -37 219 -180q114 -95 125 -127q8 -23 8 -49q0 -90 -100 -158q-94 -64 -252 -92
q-39 -22 -201 -22q-153 0 -264 51v418q44 -123 131 -234q132 -168 273 -168q108 0 108 92q0 18 -67 80q-129 119 -357 301z" />
    <glyph glyph-name="t" unicode="t" horiz-adv-x="770" 
d="M10 807h797v-324q-51 285 -266 285v-207q0 -285 8 -487q2 -45 135 -74h-551q129 27 133 72q10 105 10 389v252q0 30 -4 55q-208 0 -264 -287z" />
    <glyph glyph-name="u" unicode="u" horiz-adv-x="1108" 
d="M-14 803h682q-184 -19 -185 -68q-2 -166 -2 -254v-112l2 -115v-162q70 -53 152 -53q106 0 225 80q4 29 8 184l6 242q0 14 2 46q1 26 1 40q0 86 -13 121q0 34 -114 51h401q-164 -23 -166 -51q-14 -231 -14 -406q0 -174 14 -248q-215 -118 -450 -118q-216 0 -392 120
q5 11 9 154q2 69 2 221q0 164 -11 264q-6 17 -34 33q-29 21 -123 31z" />
    <glyph glyph-name="v" unicode="v" horiz-adv-x="926" 
d="M664 807h315q-110 -10 -129 -53q-99 -223 -182 -531q-42 -157 -52 -223h-311q-27 130 -80 305q-19 63 -92 289q-18 57 -57 162q0 5 -23 26q-17 15 -82 25h545q-110 -23 -110 -57q13 -56 28 -117q13 -51 58 -227l63 -248l201 602q0 6 -15 22q-24 13 -77 25z" />
    <glyph glyph-name="w" unicode="w" horiz-adv-x="1595" 
d="M-66 805h547q-112 -17 -112 -57l69 -234q34 -116 92 -332l183 549q0 43 -88 74h516q-119 -17 -119 -64q72 -250 111 -360l71 -199l197 582q0 24 -111 41h369q-155 -10 -172 -53q-45 -113 -129 -346q-88 -243 -125 -406h-279q0 5 -18 70q-13 48 -57 204q-12 41 -48 181
q-4 17 -24 86l-33 116q-13 -27 -61 -170q-58 -174 -82 -260q-37 -130 -58 -227h-305q-26 116 -82 307q-40 136 -90 283l-30 88q-11 28 -27 74q0 39 -105 53z" />
    <glyph glyph-name="x" unicode="x" horiz-adv-x="1327" 
d="M836 805h516q-211 -17 -230 -33q-110 -65 -211 -164q-85 -83 -127 -139q202 -268 396 -406q42 -30 190 -63h-811q162 18 162 57q0 9 -4 13v2q-4 2 -4 4q-17 33 -178 258q-96 -96 -168 -178l-101 -115q0 -29 92 -41h-387q125 15 183 51q37 23 143 123q117 110 199 215
q-87 117 -172 221q-12 14 -138 162q-10 4 -34 14q-37 9 -138 19h717q-139 -17 -149 -43l157 -227q51 42 150 137l104 100l-43 16q-47 11 -114 17z" />
    <glyph glyph-name="y" unicode="y" horiz-adv-x="1126" 
d="M-66 807h701q-148 -12 -148 -37l195 -319q48 56 129 165l111 148q0 24 -101 43h379q-88 -10 -115 -21q-38 -15 -43 -20q-221 -200 -278 -377l4 -344q0 -22 143 -45h-624q75 18 100 37q19 10 29 22v328l-297 369q-15 35 -185 51z" />
    <glyph glyph-name="z" unicode="z" horiz-adv-x="868" 
d="M61 805h822l-488 -752q173 6 283 109q172 161 201 350q-25 -114 -33 -266q-10 -186 -10 -246h-865l527 774q-156 -6 -275 -90q-99 -70 -147 -170q-37 -77 -47 -123q13 86 22 213q10 147 10 201z" />
    </font>
</defs>
</svg>
